<?xml version="1.0" encoding="UTF-8" standalone="no"?>
<!DOCTYPE svg PUBLIC "-//W3C//DTD SVG 1.1//EN" "http://www.w3.org/Graphics/SVG/1.1/DTD/svg11.dtd">
<svg width="100%" height="100%" viewBox="0 0 540 540" version="1.1" xmlns="http://www.w3.org/2000/svg" xmlns:xlink="http://www.w3.org/1999/xlink" xml:space="preserve" xmlns:serif="http://www.serif.com/" style="fill-rule:evenodd;clip-rule:evenodd;stroke-linejoin:round;stroke-miterlimit:2;">
    <g transform="matrix(0.5,0,0,0.5,0,0)">
        <g id="logo">
            <path d="M540,0C838.034,0 1080,241.966 1080,540C1080,838.034 838.034,1080 540,1080C241.966,1080 0,838.034 0,540C0,241.966 241.966,0 540,0ZM540,119.107C307.703,119.107 119.107,307.703 119.107,540C119.107,772.297 307.703,960.893 540,960.893C772.297,960.893 960.893,772.297 960.893,540C960.893,307.703 772.297,119.107 540,119.107Z"/>
            <g transform="matrix(1.04984,-0.0159814,-0.0159814,1.00512,10.4929,91.6098)">
                <path d="M88.966,502.963C59.574,512.388 27.638,494.866 17.695,463.858C7.752,432.851 23.542,400.024 52.934,390.599L846.114,136.248C875.506,126.823 907.442,144.345 917.385,175.353C927.328,206.361 911.538,239.187 882.146,248.613L88.966,502.963Z"/>
            </g>
            <g transform="matrix(1.10064,-0.28883,-0.28883,1.82894,132.991,-343.015)">
                <path d="M475.918,299.274C481.471,283.338 510.944,279.098 541.694,289.812C572.443,300.527 592.9,322.163 587.348,338.099L461.987,697.885C456.434,713.821 426.961,718.061 396.211,707.346C365.462,696.632 345.005,674.996 350.557,659.06L475.918,299.274Z"/>
            </g>
            <g transform="matrix(0.753308,0.0798686,0.0798686,0.974142,23.95,87.1525)">
                <path d="M388.099,622.341C430.686,608.553 473.404,622.511 483.434,653.491C493.464,684.47 467.032,720.816 424.445,734.604L165.753,818.357C123.167,832.145 80.448,818.188 70.418,787.208C60.388,756.228 86.821,719.882 129.407,706.094L388.099,622.341Z"/>
            </g>
            <g transform="matrix(1,0,0,1,-38.1268,38.8639)">
                <path d="M515.759,406.599C492.183,384.137 491.28,346.76 513.743,323.185C536.205,299.61 573.582,298.706 597.157,321.169L1002.51,707.387C1026.08,729.85 1026.99,767.226 1004.52,790.801C982.06,814.377 944.683,815.28 921.108,792.817L515.759,406.599Z"/>
            </g>
        </g>
    </g>
</svg>
